<svg id="visual" viewBox="0 0 540 960" width="540" height="960" xmlns="http://www.w3.org/2000/svg" xmlns:xlink="http://www.w3.org/1999/xlink" version="1.1"><rect x="0" y="0" width="540" height="960" fill="#002233"></rect><path d="M0 652L32 652L32 652L64 652L64 652L95 652L95 652L127 652L127 652L159 652L159 652L191 652L191 652L222 652L222 652L254 652L254 652L286 652L286 652L318 652L318 652L349 652L349 652L381 652L381 652L413 652L413 652L445 652L445 652L476 652L476 652L508 652L508 652L540 652L540 652L540 961L540 961L508 961L508 961L476 961L476 961L445 961L445 961L413 961L413 961L381 961L381 961L349 961L349 961L318 961L318 961L286 961L286 961L254 961L254 961L222 961L222 961L191 961L191 961L159 961L159 961L127 961L127 961L95 961L95 961L64 961L64 961L32 961L32 961L0 961Z" fill="#21435c"></path><path d="M0 767L32 767L32 767L64 767L64 767L95 767L95 767L127 767L127 767L159 767L159 767L191 767L191 767L222 767L222 767L254 767L254 767L286 767L286 767L318 767L318 767L349 767L349 767L381 767L381 767L413 767L413 767L445 767L445 767L476 767L476 767L508 767L508 767L540 767L540 767L540 961L540 961L508 961L508 961L476 961L476 961L445 961L445 961L413 961L413 961L381 961L381 961L349 961L349 961L318 961L318 961L286 961L286 961L254 961L254 961L222 961L222 961L191 961L191 961L159 961L159 961L127 961L127 961L95 961L95 961L64 961L64 961L32 961L32 961L0 961Z" fill="#3581b8"></path></svg>